<svg xmlns="http://www.w3.org/2000/svg" xmlns:xlink="http://www.w3.org/1999/xlink" width="500" zoomAndPan="magnify" viewBox="0 0 375 374.999991" height="500" preserveAspectRatio="xMidYMid meet" version="1.0"><defs><g/><clipPath id="id1"><path d="M 103.84375 132.136719 L 271.09375 132.136719 L 271.09375 187.546875 L 103.84375 187.546875 Z M 103.84375 132.136719 " clip-rule="nonzero"/></clipPath></defs><g clip-path="url(#id1)"><path fill="#86cabf" d="M 271.097656 147.394531 C 270.046875 146.34375 268.996094 145.292969 267.941406 144.242188 C 267.214844 143.515625 266.488281 142.789062 265.761719 142.0625 C 265.511719 141.808594 265.261719 141.5625 265.011719 141.3125 C 264.953125 141.25 264.757812 140.980469 264.667969 140.96875 C 264.570312 140.957031 264.128906 141.472656 264.050781 141.542969 C 263.75 141.820312 263.4375 142.085938 263.121094 142.335938 C 262.476562 142.851562 261.800781 143.320312 261.09375 143.738281 C 259.730469 144.546875 258.261719 145.175781 256.734375 145.605469 C 253.765625 146.441406 250.59375 146.503906 247.589844 145.792969 C 244.476562 145.054688 241.519531 143.476562 239.226562 141.238281 C 236.605469 138.675781 233.703125 136.558594 230.308594 135.117188 C 223.683594 132.316406 216.042969 132.261719 209.375 134.96875 C 205.988281 136.339844 202.921875 138.402344 200.339844 140.976562 C 197.484375 143.820312 193.738281 145.660156 189.734375 146.164062 C 186 146.628906 182.09375 145.925781 178.792969 144.109375 C 177.246094 143.257812 175.832031 142.203125 174.582031 140.953125 C 173.257812 139.628906 171.800781 138.441406 170.238281 137.417969 C 164.191406 133.449219 156.652344 132.0625 149.582031 133.566406 C 146.03125 134.320312 142.644531 135.792969 139.667969 137.871094 C 138.15625 138.929688 136.859375 140.179688 135.519531 141.425781 C 134.339844 142.519531 133.019531 143.457031 131.597656 144.207031 C 126.003906 147.144531 119.085938 146.929688 113.691406 143.644531 C 113.003906 143.226562 112.347656 142.765625 111.722656 142.261719 C 111.421875 142.015625 111.128906 141.765625 110.84375 141.503906 C 110.746094 141.414062 110.367188 140.957031 110.269531 140.976562 C 110.171875 140.988281 109.96875 141.277344 109.902344 141.34375 C 109.648438 141.597656 109.390625 141.855469 109.132812 142.109375 C 107.675781 143.566406 106.21875 145.023438 104.761719 146.480469 C 104.453125 146.789062 104.148438 147.089844 103.84375 147.394531 C 108.847656 152.398438 115.710938 155.289062 122.785156 155.378906 C 124.714844 155.40625 126.648438 155.226562 128.542969 154.84375 C 127.222656 161.394531 128.394531 168.230469 131.726562 174.011719 C 134.796875 179.335938 139.769531 183.5 145.488281 185.703125 C 148.601562 186.90625 151.949219 187.527344 155.289062 187.527344 C 161.082031 187.515625 166.738281 185.652344 171.421875 182.25 C 176.746094 178.378906 180.480469 172.5625 181.925781 166.15625 C 182.761719 162.453125 182.785156 158.566406 182.035156 154.84375 C 185.605469 155.566406 189.335938 155.566406 192.90625 154.84375 C 191.589844 161.390625 192.75 168.238281 196.089844 174.011719 C 199.167969 179.332031 204.125 183.496094 209.847656 185.703125 C 212.964844 186.90625 216.3125 187.527344 219.652344 187.527344 C 225.457031 187.527344 231.15625 185.636719 235.835938 182.207031 C 241.109375 178.347656 244.816406 172.589844 246.269531 166.234375 C 247.121094 162.507812 247.152344 158.59375 246.394531 154.84375 C 253.214844 156.214844 260.449219 154.910156 266.335938 151.199219 C 268.0625 150.117188 269.65625 148.835938 271.097656 147.394531 Z M 173.453125 160.789062 C 173.234375 168.734375 167.628906 175.8125 159.929688 177.816406 C 152.308594 179.796875 143.890625 176.566406 139.808594 169.765625 C 137.824219 166.460938 136.875 162.691406 137.171875 158.832031 C 137.453125 155.226562 138.808594 151.742188 141.066406 148.914062 C 145.621094 143.210938 153.359375 140.734375 160.398438 142.789062 C 167.332031 144.8125 172.507812 150.964844 173.335938 158.136719 C 173.441406 159.015625 173.480469 159.902344 173.453125 160.789062 Z M 237.820312 160.789062 C 237.6875 164.792969 236.253906 168.457031 233.839844 171.625 C 231.527344 174.660156 227.96875 176.863281 224.296875 177.816406 C 216.734375 179.773438 208.269531 176.609375 204.214844 169.828125 C 202.195312 166.453125 201.21875 162.632812 201.550781 158.695312 C 201.851562 155.113281 203.226562 151.660156 205.480469 148.859375 C 209.988281 143.257812 217.558594 140.804688 224.496094 142.710938 C 231.5625 144.652344 236.863281 150.859375 237.707031 158.136719 C 237.804688 159.015625 237.84375 159.902344 237.820312 160.789062 Z M 237.820312 160.789062 " fill-opacity="1" fill-rule="nonzero"/></g><g fill="#000000" fill-opacity="1"><g transform="translate(118.637605, 220.599302)"><g><path d="M 18.910156 -19.496094 L 12.703125 -6.011719 L 6.5625 -19.496094 L 1.917969 -19.496094 L 1.917969 0 L 6.207031 0 L 6.207031 -11.632812 L 11.46875 0 L 13.941406 0 L 19.234375 -11.601562 L 19.234375 0 L 23.527344 0 L 23.527344 -19.496094 Z M 18.910156 -19.496094 "/></g></g></g><g fill="#000000" fill-opacity="1"><g transform="translate(143.557523, 220.599302)"><g><path d="M 12.085938 -8.027344 C 14.394531 -8.707031 16.019531 -10.851562 16.019531 -13.515625 C 16.019531 -16.832031 13.550781 -19.496094 10.203125 -19.496094 L 1.917969 -19.496094 L 1.917969 0 L 6.207031 0 L 6.207031 -7.539062 L 7.929688 -7.539062 L 12.738281 0 L 17.546875 0 Z M 9.554688 -11.082031 L 6.207031 -11.082031 L 6.207031 -15.695312 L 9.554688 -15.695312 C 10.917969 -15.695312 11.925781 -14.71875 11.925781 -13.386719 C 11.925781 -12.023438 10.917969 -11.082031 9.554688 -11.082031 Z M 9.554688 -11.082031 "/></g></g></g><g fill="#000000" fill-opacity="1"><g transform="translate(160.419838, 220.599302)"><g><path d="M 4.386719 0.261719 C 5.6875 0.261719 6.792969 -0.8125 6.792969 -2.113281 C 6.792969 -3.410156 5.6875 -4.484375 4.386719 -4.484375 C 3.121094 -4.484375 2.046875 -3.410156 2.046875 -2.113281 C 2.046875 -0.8125 3.121094 0.261719 4.386719 0.261719 Z M 4.386719 0.261719 "/></g></g></g><g fill="#000000" fill-opacity="1"><g transform="translate(168.704714, 220.599302)"><g><path d="M 13.941406 -19.496094 L -0.164062 -19.496094 L -0.164062 -15.695312 L 4.777344 -15.695312 L 4.777344 0 L 9.035156 0 L 9.035156 -15.695312 L 13.941406 -15.695312 Z M 13.941406 -19.496094 "/></g></g></g><g fill="#000000" fill-opacity="1"><g transform="translate(181.96061, 220.599302)"><g><path d="M 13.84375 0 L 18.425781 0 L 11.40625 -19.496094 L 6.597656 -19.496094 L -0.421875 0 L 4.160156 0 L 5.363281 -3.671875 L 12.640625 -3.671875 Z M 6.5 -7.246094 L 9 -14.980469 L 11.503906 -7.246094 Z M 6.5 -7.246094 "/></g></g></g><g fill="#000000" fill-opacity="1"><g transform="translate(199.440246, 220.599302)"><g><path d="M 18.910156 -19.496094 L 12.703125 -6.011719 L 6.5625 -19.496094 L 1.917969 -19.496094 L 1.917969 0 L 6.207031 0 L 6.207031 -11.632812 L 11.46875 0 L 13.941406 0 L 19.234375 -11.601562 L 19.234375 0 L 23.527344 0 L 23.527344 -19.496094 Z M 18.910156 -19.496094 "/></g></g></g><g fill="#000000" fill-opacity="1"><g transform="translate(224.360167, 220.599302)"><g><path d="M 13.808594 -15.726562 L 13.808594 -19.496094 L 2.078125 -19.496094 L 2.078125 0 L 13.808594 0 L 13.808594 -3.769531 L 6.367188 -3.769531 L 6.367188 -7.863281 L 12.738281 -7.863281 L 12.738281 -11.632812 L 6.367188 -11.632812 L 6.367188 -15.726562 Z M 13.808594 -15.726562 "/></g></g></g><g fill="#000000" fill-opacity="1"><g transform="translate(238.980657, 220.599302)"><g><path d="M 12.085938 -8.027344 C 14.394531 -8.707031 16.019531 -10.851562 16.019531 -13.515625 C 16.019531 -16.832031 13.550781 -19.496094 10.203125 -19.496094 L 1.917969 -19.496094 L 1.917969 0 L 6.207031 0 L 6.207031 -7.539062 L 7.929688 -7.539062 L 12.738281 0 L 17.546875 0 Z M 9.554688 -11.082031 L 6.207031 -11.082031 L 6.207031 -15.695312 L 9.554688 -15.695312 C 10.917969 -15.695312 11.925781 -14.71875 11.925781 -13.386719 C 11.925781 -12.023438 10.917969 -11.082031 9.554688 -11.082031 Z M 9.554688 -11.082031 "/></g></g></g></svg>